<mxfile host="app.diagrams.net" modified="2020-08-09T15:40:03.136Z" agent="5.0 (Macintosh; Intel Mac OS X 10_13_6) AppleWebKit/537.36 (KHTML, like Gecko) Chrome/84.0.4147.89 Safari/537.36" etag="PulGxShOQvYL7u2uFMRJ" version="13.6.2" type="github">
  <diagram id="9yGuTlsZ8Y7SOnh658ti" name="第 1 页">
    <mxGraphModel dx="757" dy="370" grid="0" gridSize="10" guides="1" tooltips="1" connect="1" arrows="1" fold="1" page="0" pageScale="1" pageWidth="827" pageHeight="1169" background="none" math="0" shadow="0">
      <root>
        <mxCell id="0" />
        <mxCell id="1" parent="0" />
        <mxCell id="cOHTzzDG18c5NZVRI5Rh-1" value="用户" style="shape=umlLifeline;perimeter=lifelinePerimeter;whiteSpace=wrap;html=1;container=1;collapsible=0;recursiveResize=0;outlineConnect=0;fillColor=#F2CC8F;strokeColor=#E07A5F;fontColor=#393C56;" parent="1" vertex="1">
          <mxGeometry x="78" y="113" width="100" height="312" as="geometry" />
        </mxCell>
        <mxCell id="cOHTzzDG18c5NZVRI5Rh-5" value="浏览器" style="shape=umlLifeline;perimeter=lifelinePerimeter;whiteSpace=wrap;html=1;container=1;collapsible=0;recursiveResize=0;outlineConnect=0;fillColor=#F2CC8F;strokeColor=#E07A5F;fontColor=#393C56;" parent="1" vertex="1">
          <mxGeometry x="238" y="113" width="100" height="312" as="geometry" />
        </mxCell>
        <mxCell id="cOHTzzDG18c5NZVRI5Rh-11" value="GET http://a.com/page2" style="html=1;verticalAlign=bottom;endArrow=block;strokeColor=#E07A5F;fontColor=#393C56;labelBackgroundColor=#F4F1DE;" parent="cOHTzzDG18c5NZVRI5Rh-5" edge="1">
          <mxGeometry width="80" relative="1" as="geometry">
            <mxPoint x="50" y="95" as="sourcePoint" />
            <mxPoint x="399.5" y="95" as="targetPoint" />
          </mxGeometry>
        </mxCell>
        <mxCell id="cOHTzzDG18c5NZVRI5Rh-6" value="用户中心" style="shape=umlLifeline;perimeter=lifelinePerimeter;whiteSpace=wrap;html=1;container=1;collapsible=0;recursiveResize=0;outlineConnect=0;fillColor=#f8cecc;strokeColor=#b85450;" parent="1" vertex="1">
          <mxGeometry x="418" y="113" width="100" height="313" as="geometry" />
        </mxCell>
        <mxCell id="u-cGchz_qDVYLQRvQrQZ-2" value="如果验证通过&lt;br&gt;将sso登录态续期" style="edgeStyle=orthogonalEdgeStyle;html=1;align=left;spacingLeft=2;endArrow=block;rounded=0;entryX=1;entryY=0;strokeColor=#E07A5F;fontColor=#393C56;labelBackgroundColor=#F4F1DE;" edge="1" parent="cOHTzzDG18c5NZVRI5Rh-6">
          <mxGeometry relative="1" as="geometry">
            <mxPoint x="51" y="156" as="sourcePoint" />
            <Array as="points">
              <mxPoint x="76" y="156" />
            </Array>
            <mxPoint x="56" y="180" as="targetPoint" />
          </mxGeometry>
        </mxCell>
        <mxCell id="u-cGchz_qDVYLQRvQrQZ-3" value="" style="html=1;points=[];perimeter=orthogonalPerimeter;fillColor=#F2CC8F;strokeColor=#E07A5F;fontColor=#393C56;" vertex="1" parent="cOHTzzDG18c5NZVRI5Rh-6">
          <mxGeometry x="46" y="176" width="10" height="40" as="geometry" />
        </mxCell>
        <mxCell id="cOHTzzDG18c5NZVRI5Rh-7" value="系统A" style="shape=umlLifeline;perimeter=lifelinePerimeter;whiteSpace=wrap;html=1;container=1;collapsible=0;recursiveResize=0;outlineConnect=0;fillColor=#F2CC8F;strokeColor=#E07A5F;fontColor=#393C56;" parent="1" vertex="1">
          <mxGeometry x="588" y="113" width="100" height="320" as="geometry" />
        </mxCell>
        <mxCell id="cOHTzzDG18c5NZVRI5Rh-15" value="验证sessionkey有效性&lt;br&gt;GET http://cas.com/session/validate?sessionkey=&amp;nbsp;sessionkey" style="html=1;verticalAlign=bottom;endArrow=block;strokeColor=#E07A5F;fontColor=#393C56;dashed=1;labelBackgroundColor=#F4F1DE;" parent="1" edge="1">
          <mxGeometry width="80" relative="1" as="geometry">
            <mxPoint x="637.5" y="257" as="sourcePoint" />
            <mxPoint x="468" y="257" as="targetPoint" />
          </mxGeometry>
        </mxCell>
        <mxCell id="cOHTzzDG18c5NZVRI5Rh-16" value="验证通过，返回用户信息" style="html=1;verticalAlign=bottom;endArrow=block;strokeColor=#E07A5F;fontColor=#393C56;labelBackgroundColor=#F4F1DE;" parent="1" edge="1">
          <mxGeometry width="80" relative="1" as="geometry">
            <mxPoint x="468" y="339" as="sourcePoint" />
            <mxPoint x="638" y="339" as="targetPoint" />
          </mxGeometry>
        </mxCell>
        <mxCell id="tDoBP8PQl3Mzpf3dStTA-1" value="&amp;nbsp;302 Location http://a.com/page2" style="html=1;verticalAlign=bottom;endArrow=block;strokeColor=#E07A5F;fontColor=#393C56;dashed=1;labelBackgroundColor=#F4F1DE;" parent="1" edge="1">
          <mxGeometry width="80" relative="1" as="geometry">
            <mxPoint x="635" y="385" as="sourcePoint" />
            <mxPoint x="287" y="385" as="targetPoint" />
          </mxGeometry>
        </mxCell>
        <mxCell id="tDoBP8PQl3Mzpf3dStTA-2" value="show page" style="html=1;verticalAlign=bottom;endArrow=block;strokeColor=#E07A5F;fontColor=#393C56;dashed=1;labelBackgroundColor=#F4F1DE;" parent="1" edge="1">
          <mxGeometry width="80" relative="1" as="geometry">
            <mxPoint x="290" y="398" as="sourcePoint" />
            <mxPoint x="126" y="398" as="targetPoint" />
          </mxGeometry>
        </mxCell>
        <mxCell id="u-cGchz_qDVYLQRvQrQZ-1" value="访问A系统的另一个需要认证的页面&lt;br&gt;http://a.com/page2" style="html=1;verticalAlign=bottom;endArrow=block;strokeColor=#E07A5F;fontColor=#393C56;labelBackgroundColor=#F4F1DE;" edge="1" parent="1">
          <mxGeometry width="80" relative="1" as="geometry">
            <mxPoint x="129" y="195" as="sourcePoint" />
            <mxPoint x="289" y="195" as="targetPoint" />
          </mxGeometry>
        </mxCell>
      </root>
    </mxGraphModel>
  </diagram>
</mxfile>
